<svg id="wave" style="transform:rotate(0deg); transition: 0.3s" viewBox="0 0 1440 290" version="1.1" xmlns="http://www.w3.org/2000/svg"><defs><linearGradient id="sw-gradient-0" x1="0" x2="0" y1="1" y2="0"><stop stop-color="rgba(62, 188, 243, 1)" offset="0%"></stop><stop stop-color="rgba(62, 188, 243, 1)" offset="100%"></stop></linearGradient></defs><path style="transform:translate(0, 0px); opacity:1" fill="url(#sw-gradient-0)" d="M0,49L120,89.8C240,131,480,212,720,204.2C960,196,1200,98,1440,89.8C1680,82,1920,163,2160,220.5C2400,278,2640,310,2880,318.5C3120,327,3360,310,3600,302.2C3840,294,4080,294,4320,261.3C4560,229,4800,163,5040,122.5C5280,82,5520,65,5760,73.5C6000,82,6240,114,6480,155.2C6720,196,6960,245,7200,236.8C7440,229,7680,163,7920,138.8C8160,114,8400,131,8640,138.8C8880,147,9120,147,9360,130.7C9600,114,9840,82,10080,73.5C10320,65,10560,82,10800,98C11040,114,11280,131,11520,122.5C11760,114,12000,82,12240,114.3C12480,147,12720,245,12960,310.3C13200,376,13440,408,13680,367.5C13920,327,14160,212,14400,196C14640,180,14880,261,15120,277.7C15360,294,15600,245,15840,236.8C16080,229,16320,261,16560,253.2C16800,245,17040,196,17160,171.5L17280,147L17280,490L17160,490C17040,490,16800,490,16560,490C16320,490,16080,490,15840,490C15600,490,15360,490,15120,490C14880,490,14640,490,14400,490C14160,490,13920,490,13680,490C13440,490,13200,490,12960,490C12720,490,12480,490,12240,490C12000,490,11760,490,11520,490C11280,490,11040,490,10800,490C10560,490,10320,490,10080,490C9840,490,9600,490,9360,490C9120,490,8880,490,8640,490C8400,490,8160,490,7920,490C7680,490,7440,490,7200,490C6960,490,6720,490,6480,490C6240,490,6000,490,5760,490C5520,490,5280,490,5040,490C4800,490,4560,490,4320,490C4080,490,3840,490,3600,490C3360,490,3120,490,2880,490C2640,490,2400,490,2160,490C1920,490,1680,490,1440,490C1200,490,960,490,720,490C480,490,240,490,120,490L0,490Z"></path></svg>